# AST/ASF file generated using VICON BodyLanguage
# -----------------------------------------------
:version 1.10
:name VICON
:units
  mass 1.0
  length 0.45
  angle deg
:documentation
   .ast/.asf automatically generated from VICON data using
   VICON BodyBuilder and BodyLanguage model FoxedUp or BRILLIANT.MOD
:root
   order TX TY TZ RX RY RZ
   axis XYZ
   position 0 0 0  
   orientation 0 0 0 
:bonedata
  begin
     id 1 
     name lhipjoint
     direction 0.643824 -0.71708 0.266994 
     length 2.52133 
     axis 0 0 0  XYZ
  end
  begin
     id 2 
     name lfemur
     direction 0.34202 -0.939693 0  
     length 7.51824  
     axis 0 0 20  XYZ
    dof rx ry rz
    limits (-160.0 20.0)
           (-70.0 70.0)
           (-60.0 70.0)
  end
  begin
     id 3 
     name ltibia
     direction 0.34202 -0.939693 0   
     length 7.3685   
     axis 0 0 20   XYZ
    dof rx
    limits (-10.0 170.0)
  end
  begin
     id 4 
     name lfoot
     direction 0.105419 -0.289636 0.951314   
     length 2.20972   
     axis -90 7.62852e-016 20   XYZ
    dof rx rz
    limits (-45.0 90.0)
           (-70.0 20.0)
  end
  begin
     id 5 
     name ltoes
     direction 1.53549e-011 -4.21833e-011 1   
     length 1.10139   
     axis -90 7.62852e-016 20   XYZ
    dof rx
    limits (-90.0 20.0)
  end
  begin
     id 6 
     name rhipjoint
     direction -0.608823 -0.743445 0.276811   
     length 2.43192  
     axis 0 0 0  XYZ 
  end
  begin
     id 7 
     name rfemur
     direction -0.34202 -0.939693 0   
     length 7.69715   
     axis 0 0 -20   XYZ
    dof rx ry rz
    limits (-160.0 20.0)
           (-70.0 70.0)
           (-70.0 60.0)
  end
  begin
     id 8 
     name rtibia
     direction -0.34202 -0.939693 0   
     length 7.44924   
     axis 0 0 -20   XYZ
    dof rx
    limits (-10.0 170.0)
 end
 begin
     id 9 
     name rfoot
     direction -0.103614 -0.284677 0.953007   
     length 2.22623  
     axis -90 -7.62852e-016 -20   XYZ
    dof rx rz
    limits (-45.0 90.0)
           (-20.0 70.0)
  end
  begin
     id 10 
     name rtoes
     direction -1.53537e-011 -4.22026e-011 1   
     length 1.11   
     axis -90 -7.62852e-016 -20   XYZ
    dof rx
    limits (-90.0 20.0)
  end
  begin
     id 11 
     name lowerback
     direction -0.0101212 0.99662 -0.0815298   
     length 2.08277   
     axis 0 0 0   XYZ
    dof rx ry rz
    limits (-20.0 45.0)
           (-30.0 30.0)
           (-30.0 30.0)
  end
  begin
     id 12 
     name upperback
     direction 0.024314 0.999591 -0.0150645   
     length 2.08524   
     axis 0 0 0   XYZ
    dof rx ry rz
    limits (-20.0 45.0)
           (-30.0 30.0)
           (-30.0 30.0)
  end
  begin
     id 13 
     name thorax
     direction 0.0285959 0.999323 0.0231357   
     length 2.09645   
     axis 0 0 0   XYZ
    dof rx ry rz
    limits (-20.0 45.0)
           (-30.0 30.0)
           (-30.0 30.0)
  end
  begin
     id 14 
     name lowerneck
     direction -0.065512 0.979301 0.191515   
     length 1.63798   
     axis 0 0 0   XYZ
    dof rx ry rz
    limits (-20.0 45.0)
           (-30.0 30.0)
           (-30.0 30.0)
  end
  begin
     id 15 
     name upperneck
     direction 0.0498479 0.98191 -0.182667   
     length 1.68731   
     axis 0 0 0   XYZ
    dof rx ry rz
    limits (-20.0 45.0)
           (-30.0 30.0)
           (-30.0 30.0)
  end
  begin
     id 16
     name head
     direction 0.0230358 0.996257 -0.0833175  
     length 1.69785  
     axis 0 0 0   XYZ
    dof rx ry rz
    limits (-20.0 45.0)
           (-30.0 30.0)
           (-30.0 30.0)
  end
  begin
     id 17 
     name lclavicle
     direction 0.967963 0.201165 -0.150269  
     length 3.63976  
     axis 0 0 0   XYZ
    dof ry rz
    limits (-20.0 10.0)
           (0.0 20.0)
  end
  begin
     id 18 
     name lhumerus
     direction 1 -4.48954e-011 -2.92837e-028   
     length 5.32462   
     axis 180 -30 -90   XYZ
    dof rx ry rz
    limits (-60.0 90.0)
           (-90.0 90.0)
           (-90.0 90.0)
  end
  begin
     id 19
     name lradius
     direction 1 -4.48958e-011 -6.39511e-027   
     length 3.48402   
     axis 180 -30 -90   XYZ
    dof rx
    limits (-10.0 170.0)
  end
  begin
     id 20
     name lwrist
     direction 1 -4.48975e-011 -1.1413e-026   
     length 1.74201   
     axis 6.88575e-015 90 90   XYZ
    dof ry
    limits (-180.0 0.0)
 end
  begin
     id 21 
     name lhand
     direction 1 -4.48899e-011 -2.28192e-026   
     length 0.572476   
     axis 1.45643e-014 90 90   XYZ
    dof rx rz
    limits (-90.0 90.0)
           (-45.0 45.0)
  end
  begin
     id 22 
     name lfingers
     direction 1 -4.49155e-011 -4.5684e-026   
     length 0.461545   
     axis 2.91283e-014 90 90   XYZ
    dof rx
    limits (0.0 90.0)
  end
  begin
     id 23
     name lthumb
     direction 0.707107 -6.34943e-011 0.707107   
     length 0.662688   
     axis -90 45 -2.25915e-014   XYZ
    dof rx rz
    limits (-45.0 45.0)
           (-45.0 45.0)
  end
  begin
     id 24 
     name rclavicle
     direction -0.964103 0.264019 -0.0282629   
     length 3.54491  
     axis 0 0 0   XYZ 
    dof ry rz
    limits (-10.0 20.0)
           (-20.0 0.0)
  end
  begin
     id 25 
     name rhumerus
     direction -1 -4.48964e-011 -2.45032e-027  
     length 5.33589   
     axis 180 30 90   XYZ
    dof rx ry rz
    limits (-90.0 60.0)
           (-90.0 90.0)
           (-90.0 90.0)
  end
  begin
     id 26 
     name rradius
     direction -1 -4.48987e-011 -1.55093e-027   
     length 3.64134   
     axis 180 30 90   XYZ
    dof rx
    limits (-10.0 170.0)
  end
  begin
     id 27 
     name rwrist
     direction -1 -4.4897e-011 -1.14128e-026   
     length 1.82067   
     axis 6.88575e-015 -90 -90   XYZ
    dof ry
    limits (-180.0 0.0)
  end
  begin
     id 28
     name rhand
     direction -1 -4.49021e-011 -2.28301e-026   
     length 0.734811   
     axis 1.45643e-014 -90 -90   XYZ
    dof rx rz
    limits (-90.0 90.0)
           (-45.0 45.0)
  end
  begin
     id 29
     name rfingers
     direction -1 -4.48862e-011 -4.56319e-026   
     length 0.592424   
     axis 2.91283e-014 -90 -90   XYZ
    dof rx
    limits (0.0 90.0)
  end
  begin
     id 30
     name rthumb
     direction -0.707107 -6.34978e-011 0.707107   
     length 0.850605   
     axis -90 -45 2.25915e-014   XYZ
    dof rx rz
    limits (-45.0 45.0)
           (-45.0 45.0)
  end
:hierarchy
  begin
    root lhipjoint rhipjoint lowerback
    lhipjoint lfemur
    lfemur ltibia
    ltibia lfoot
    lfoot ltoes
    rhipjoint rfemur
    rfemur rtibia
    rtibia rfoot
    rfoot rtoes
    lowerback upperback
    upperback thorax
    thorax lowerneck lclavicle rclavicle
    lowerneck upperneck
    upperneck head
    lclavicle lhumerus
    lhumerus lradius
    lradius lwrist
    lwrist lhand lthumb
    lhand lfingers
    rclavicle rhumerus
    rhumerus rradius
    rradius rwrist
    rwrist rhand rthumb
    rhand rfingers
  end

#!OML:ASF F:\VICON\USERDATA\INSTALL\rory3\rory3.ASF
:FULLY-SPECIFIED
:DEGREES
256
root -1.8865 17.6768 -0.334722 -0.725293 -15.5275 1.25275
lowerback 3.51938 -1.98695 -4.48814
upperback -2.41676 -2.78057 3.22331
thorax -4.11169 -1.20717 6.07568
lowerneck -17.8673 -0.415625 -9.7041
upperneck 29.057 -2.24499 14.5548
head 12.9158 -0.209701 7.09689
rclavicle 1.57537e-014 2.62396e-014
rhumerus 61.4923 -72.2734 -41.4784
rradius 79.6833
rwrist -13.2964
rhand -41.5457 -3.21809
rfingers 7.12502
rthumb -14.4575 -32.6945
lclavicle 1.57537e-014 2.62396e-014
lhumerus 51.5981 63.7883 33.5917
lradius 41.8304
lwrist 25.0265
lhand -21.3716 26.4492
lfingers 7.12502
lthumb 5.01553 56.3698
rfemur -8.88965 3.81575 14.3357
rtibia 32.5909
rfoot -20.2434 -4.92676
rtoes -1.74687
lfemur 2.63215 -3.08687 -14.231
ltibia 29.7234
lfoot -10.922 19.6864
ltoes -28.378
257
root -1.92799 17.6924 -0.328173 -0.712101 -15.7783 1.35311
lowerback 3.59941 -1.99688 -4.3884
upperback -2.35341 -2.79068 3.22913
thorax -4.09335 -1.21709 6.02724
lowerneck -17.6858 -0.368077 -9.63599
upperneck 29.4369 -2.23419 14.482
head 13.0294 -0.216443 7.08142
rclavicle -4.82053e-015 1.59028e-014
rhumerus 60.7297 -72.0096 -40.2921
rradius 80.4275
rwrist -12.6543
rhand -41.6841 -2.82424
rfingers 7.12502
rthumb -14.5908 -32.291
lclavicle -4.82053e-015 1.59028e-014
lhumerus 49.8397 63.2566 31.822
lradius 40.1496
lwrist 24.8848
lhand -21.277 26.1489
lfingers 7.12502
lthumb 5.10685 56.0673
rfemur -8.82578 3.78155 14.3448
rtibia 32.3903
rfoot -20.0775 -4.73461
rtoes -1.35289
lfemur 2.08653 -2.84505 -14.1457
ltibia 30.6979
lfoot -10.2179 19.4138
ltoes -28.0615
258
root -1.96895 17.7078 -0.321274 -0.700689 -16.058 1.46548
lowerback 3.68838 -1.97725 -4.36315
upperback -2.25212 -2.76466 3.26039
thorax -4.04104 -1.20847 6.04521
lowerneck -17.7977 -0.333229 -9.44826
upperneck 29.984 -2.22907 14.2704
head 13.2776 -0.22262 7.00773
rclavicle -4.96962e-016 1.59028e-015
rhumerus 59.179 -71.8374 -38.0657
rradius 81.1313
rwrist -12.0846
rhand -42.1283 -2.95109
rfingers 7.12502
rthumb -15.0187 -32.3864
lclavicle -4.96962e-016 1.59028e-015
lhumerus 48.1017 62.7317 30.0705
lradius 38.5552
lwrist 24.741
lhand -21.0882 26.3649
lfingers 7.12502
lthumb 5.28916 56.2789
rfemur -8.75797 3.78134 14.3453
rtibia 32.1415
rfoot -19.8085 -4.62254
rtoes -1.17859
lfemur 1.50983 -2.58374 -14.0751
ltibia 31.7055
lfoot -9.36629 19.1181
ltoes -26.7586
259
root -2.00845 17.7241 -0.318412 -0.763485 -16.2381 1.58903
lowerback 3.86341 -1.99036 -4.31557
upperback -2.11718 -2.78461 3.27036
thorax -3.99807 -1.22406 6.03373
lowerneck -17.8302 -0.285771 -9.41427
upperneck 30.4571 -2.20934 14.234
head 13.4809 -0.220182 7.03062
rclavicle -2.44008e-014 5.56597e-015
rhumerus 57.3538 -71.7382 -35.488
rradius 81.7958
rwrist -11.4598
rhand -42.4714 -3.12581
rfingers 7.12502
rthumb -15.3493 -32.5361
lclavicle -2.44008e-014 5.56597e-015
lhumerus 46.3614 62.2121 28.3088
lradius 36.9825
lwrist 24.3586
lhand -20.3021 27.1574
lfingers 7.12502
lthumb 6.04818 57.051
rfemur -8.57722 3.77253 14.3543
rtibia 31.8527
rfoot -19.6804 -4.58357
rtoes -1.30812
lfemur 0.92946 -2.317 -13.9892
ltibia 32.7273
lfoot -8.31776 18.5711
ltoes -24.6849
260
root -2.0466 17.7408 -0.313531 -0.80191 -16.3876 1.73537
lowerback 3.99274 -2.00521 -4.27964
upperback -2.01393 -2.80608 3.27961
thorax -3.96169 -1.23914 6.02712
lowerneck -17.6169 -0.230471 -9.42314
upperneck 30.7765 -2.19127 14.2674
head 13.5668 -0.220059 7.07046
rclavicle 4.91992e-015 6.36111e-015
rhumerus 57.0804 -71.5409 -34.7699
rradius 82.4901
rwrist -10.3297
rhand -42.4117 -2.54512
rfingers 7.12502
rthumb -15.2917 -31.9598
lclavicle 4.91992e-015 6.36111e-015
lhumerus 44.9632 61.6857 27.0656
lradius 35.5972
lwrist 23.8197
lhand -19.6095 28.0696
lfingers 7.12502
lthumb 6.71675 57.9431
rfemur -8.40301 3.74211 14.3227
rtibia 31.5424
rfoot -19.6293 -4.44557
rtoes -0.325091
lfemur 0.306776 -2.21186 -13.9612
ltibia 33.7794
lfoot -7.17361 17.8874
ltoes -23.2628
261
root -2.08356 17.7578 -0.304831 -0.77279 -16.5957 1.85554
lowerback 4.00344 -1.99828 -4.16821
upperback -1.90566 -2.79045 3.28436
thorax -3.86132 -1.24003 5.96421
lowerneck -17.4563 -0.181502 -9.37047
upperneck 31.108 -2.17833 14.2358
head 13.6701 -0.221849 7.0733
rclavicle 4.58199e-014 3.97569e-015
rhumerus 58.0694 -71.2654 -35.5423
rradius 83.1293
rwrist -8.75328
rhand -42.361 -1.93673
rfingers 7.12502
rthumb -15.2429 -31.3551
lclavicle 4.58199e-014 3.97569e-015
lhumerus 43.8312 61.1792 26.1627
lradius 34.2824
lwrist 23.0576
lhand -19.222 28.8282
lfingers 7.12502
lthumb 7.0909 58.6894
rfemur -8.30297 3.81394 14.3142
rtibia 31.2306
rfoot -19.502 -4.36597
rtoes 0.456182
lfemur -0.361428 -2.03706 -13.9148
ltibia 34.8609
lfoot -6.20385 17.3552
ltoes -23.0012
262
root -2.11918 17.7744 -0.299107 -0.768347 -16.7972 1.90289
lowerback 4.13391 -1.98371 -4.00286
upperback -1.79451 -2.76464 3.3007
thorax -3.82893 -1.23466 5.88819
lowerneck -17.3647 -0.116066 -9.27972
upperneck 31.4911 -2.14494 14.1808
head 13.8084 -0.211782 7.06915
rclavicle -7.4743e-014 -3.18055e-015
rhumerus 59.3634 -70.9915 -36.6992
rradius 83.7556
rwrist -7.16233
rhand -42.4435 -1.10334
rfingers 7.12502
rthumb -15.3224 -30.5157
lclavicle -7.4743e-014 -3.18055e-015
lhumerus 42.8108 60.6543 25.349
lradius 32.9755
lwrist 22.1028
lhand -18.9961 28.831
lfingers 7.12502
lthumb 7.30889 58.6847
rfemur -8.16425 3.88909 14.3991
rtibia 30.9064
rfoot -19.3346 -4.44705
rtoes -0.0268403
lfemur -1.03067 -1.70257 -13.7407
ltibia 35.9758
lfoot -5.44681 16.8682
ltoes -22.8627
263
root -2.15178 17.7865 -0.294072 -0.756141 -16.9876 1.94302
lowerback 4.29613 -1.94416 -3.85501
upperback -1.6742 -2.70701 3.31806
thorax -3.8082 -1.21259 5.82248
lowerneck -17.3234 -0.0956165 -9.10274
upperneck 31.8908 -2.1727 14.0302
head 13.976 -0.229182 7.00174
rclavicle -1.09332e-015 -2.3059e-014
rhumerus 60.3749 -70.8317 -37.5814
rradius 84.3517
rwrist -5.73389
rhand -42.4139 0.246825
rfingers 7.12502
rthumb -15.2938 -29.1677
lclavicle -1.09332e-015 -2.3059e-014
lhumerus 41.5629 59.9905 24.2637
lradius 31.7249
lwrist 21.2682
lhand -18.9753 28.0903
lfingers 7.12502
lthumb 7.32899 57.9434
rfemur -8.01268 3.92855 14.475
rtibia 30.5909
rfoot -19.1827 -4.39727
rtoes -0.0262371
lfemur -1.74322 -1.37706 -13.5533
ltibia 37.1068
lfoot -4.7258 16.3362
ltoes -23.063
264
root -2.18204 17.7998 -0.289455 -0.645522 -17.1959 1.97497
lowerback 4.37897 -1.97002 -3.78441
upperback -1.61947 -2.73513 3.46008
thorax -3.79095 -1.22867 5.93625
lowerneck -17.146 -0.0561887 -9.12322
upperneck 32.2204 -2.09665 13.848
head 14.0658 -0.232553 6.96185
rclavicle 1.62755e-014 -2.70347e-014
rhumerus 60.4386 -70.532 -37.1044
rradius 84.8141
rwrist -4.52666
rhand -42.6592 0.99246
rfingers 7.12502
rthumb -15.5301 -28.4039
lclavicle 1.62755e-014 -2.70347e-014
lhumerus 39.4096 59.2487 22.4154
lradius 30.6774
lwrist 20.6191
lhand -18.8964 27.8598
lfingers 7.12502
lthumb 7.40515 57.7102
rfemur -7.99883 3.95828 14.5398
rtibia 30.2985
rfoot -19.0147 -4.33572
rtoes 0.259165
lfemur -2.57618 -1.05086 -13.3802
ltibia 38.2244
lfoot -3.86758 15.8036
ltoes -23.4409
265
root -2.21079 17.8134 -0.285141 -0.501328 -17.3444 2.03425
lowerback 4.35394 -2.0737 -3.73156
upperback -1.56534 -2.865 3.63436
thorax -3.69757 -1.29738 6.09531
lowerneck -16.8949 0.0642817 -9.23099
upperneck 32.4814 -1.8842 13.7135
head 14.0866 -0.182083 6.97038
rclavicle -5.44422e-014 -4.77083e-015
rhumerus 59.22 -70.2216 -35.005
rradius 85.1859
rwrist -3.37849
rhand -43.4592 -0.0603915
rfingers 7.12502
rthumb -16.3006 -29.3953
lclavicle -5.44422e-014 -4.77083e-015
lhumerus 37.0647 58.5805 20.4686
lradius 29.777
lwrist 20.1396
lhand -18.6226 28.2554
lfingers 7.12502
lthumb 7.66942 58.0963
rfemur -8.04247 3.97739 14.5671
rtibia 30.0392
rfoot -18.8431 -4.35429
rtoes 0.307923
lfemur -3.4327 -0.788137 -13.2394
ltibia 39.2905
lfoot -2.97908 15.2264
ltoes -23.3583
266
root -2.23662 17.8277 -0.278666 -0.440974 -17.4711 2.11591
lowerback 4.39229 -2.12135 -3.58657
upperback -1.42519 -2.92048 3.68169
thorax -3.5703 -1.33511 6.06274
lowerneck -16.8331 0.141063 -9.1604
upperneck 32.7854 -1.78528 13.5781
head 14.1896 -0.155196 6.93861
rclavicle 1.10922e-013 9.54166e-015
rhumerus 58.2946 -70.0968 -33.4621
rradius 85.6196
rwrist -1.95088
rhand -43.9245 -1.49666
rfingers 7.12502
rthumb -16.7485 -30.7942
lclavicle 1.10922e-013 9.54166e-015
lhumerus 35.642 58.0307 19.3424
lradius 28.9398
lwrist 19.3636
lhand -18.4402 28.637
lfingers 7.12502
lthumb 7.84544 58.4715
rfemur -7.99039 4.07381 14.5745
rtibia 29.8006
rfoot -18.7969 -4.46937
rtoes -0.0120502
lfemur -4.18158 -0.539656 -13.1268
ltibia 40.2716
lfoot -2.11168 14.6627
ltoes -23.0267
267
root -2.25974 17.8418 -0.273877 -0.421065 -17.6183 2.21989
lowerback 4.61332 -2.15424 -3.51395
upperback -1.34759 -2.96335 3.74343
thorax -3.60912 -1.35802 6.09826
lowerneck -16.6314 0.191011 -9.12276
upperneck 33.0506 -1.71071 13.4067
head 14.2477 -0.151013 6.88516
rclavicle -4.54751e-014 -2.8625e-014
rhumerus 58.6274 -69.8224 -33.3702
rradius 85.9913
rwrist -0.657951
rhand -44.0947 -1.60809
rfingers 7.12502
rthumb -16.9123 -30.8917
lclavicle -4.54751e-014 -2.8625e-014
lhumerus 34.6287 57.6515 18.7322
lradius 28.185
lwrist 18.2821
lhand -18.2992 29.0261
lfingers 7.12502
lthumb 7.98154 58.8554
rfemur -7.9386 4.21344 14.5565
rtibia 29.5862
rfoot -18.7348 -4.61709
rtoes -0.0588907
lfemur -4.88577 -0.309722 -13.0626
ltibia 41.1778
lfoot -1.20873 14.138
ltoes -22.9685
268
root -2.28219 17.8543 -0.271018 -0.446721 -17.7203 2.37735
lowerback 4.89575 -2.21439 -3.57731
upperback -1.28499 -3.0504 3.86098
thorax -3.68293 -1.39802 6.27788
lowerneck -16.3055 0.246554 -9.18862
upperneck 33.2108 -1.58605 13.217
head 14.222 -0.141551 6.8364
rclavicle 4.35711e-014 0
rhumerus 59.2586 -69.5529 -33.4437
rradius 86.2287
rwrist 0.216042
rhand -44.1806 -1.0203
rfingers 7.12502
rthumb -16.995 -30.2968
lclavicle 4.35711e-014 0
lhumerus 33.6802 57.4491 18.384
lradius 27.5797
lwrist 17.2872
lhand -18.0364 29.4975
lfingers 7.12502
lthumb 8.2352 59.317
rfemur -7.85467 4.26271 14.4806
rtibia 29.3778
rfoot -18.6098 -4.66702
rtoes 0.152745
lfemur -5.53898 -0.183906 -13.0605
ltibia 42.0286
lfoot -0.392572 13.7244
ltoes -22.4411
269
root -2.3037 17.8654 -0.2661 -0.397044 -17.8539 2.43666
lowerback 5.01212 -2.22154 -3.42858
upperback -1.12232 -3.05343 3.88304
thorax -3.58486 -1.40925 6.21654
lowerneck -16.3634 0.258315 -9.10355
upperneck 33.5242 -1.59398 13.1245
head 14.3779 -0.152111 6.80957
rclavicle 2.87244e-014 4.77083e-015
rhumerus 59.5012 -69.577 -33.2352
rradius 86.3942
rwrist 0.959082
rhand -44.3875 -0.461799
rfingers 7.12502
rthumb -17.1942 -29.7211
lclavicle 2.87244e-014 4.77083e-015
lhumerus 33.6527 57.5334 18.8194
lradius 27.0364
lwrist 16.3248
lhand -17.8478 29.7805
lfingers 7.12502
lthumb 8.41726 59.5927
rfemur -7.82482 4.27279 14.4961
rtibia 29.1853
rfoot -18.4467 -4.68417
rtoes 0.20994
lfemur -6.20048 0.022084 -12.9473
ltibia 42.8601
lfoot 0.378219 13.3523
ltoes -21.8574
